# Blender 5.0.1
# www.blender.org
mtllib Untitled.mtl
o Bird
v 0.049688 1.979495 -2.971156
v 0.033340 2.005828 -2.960750
v 0.000645 2.005828 -2.960750
v -0.015702 1.979495 -2.971156
v 0.000645 1.953162 -2.981562
v 0.033340 1.953162 -2.981562
v 0.111910 1.863519 -2.905346
v 0.064658 1.936986 -2.870120
v -0.030672 1.936986 -2.870120
v -0.077924 1.863519 -2.905346
v -0.030297 1.790041 -2.939430
v 0.064283 1.790041 -2.939430
v 0.153221 1.762025 -2.818795
v 0.085107 1.871746 -2.775438
v -0.051121 1.871746 -2.775438
v -0.119236 1.762025 -2.818795
v -0.051121 1.652303 -2.862153
v 0.085107 1.652303 -2.862153
v 0.144649 1.448233 -2.286294
v 0.080379 1.551919 -2.246051
v -0.046394 1.551919 -2.246051
v -0.110663 1.448233 -2.286294
v -0.047212 1.343599 -2.327421
v 0.081197 1.343599 -2.327421
v 0.153221 1.149159 -1.746374
v 0.085107 1.258880 -1.703017
v -0.051121 1.258880 -1.703017
v -0.119236 1.149159 -1.746374
v -0.051121 1.039437 -1.789731
v 0.085107 1.039437 -1.789731
v 0.275762 0.889338 -1.400527
v 0.146662 1.109360 -1.346570
v -0.112676 1.109360 -1.346570
v -0.241777 0.889338 -1.400527
v -0.112193 0.670665 -1.454519
v 0.146179 0.670665 -1.454519
v 0.416490 0.686196 -1.033738
v 0.216741 1.026825 -0.973154
v -0.182756 1.026825 -0.973154
v -0.382504 0.686196 -1.033738
v -0.182756 0.345567 -1.094321
v 0.216741 0.345567 -1.094321
v 0.533139 0.591565 -0.415593
v 0.275433 1.035903 -0.366577
v -0.241447 1.035903 -0.366577
v -0.499153 0.591565 -0.415593
v -0.240787 0.148227 -0.464073
v 0.274773 0.148227 -0.464073
v 0.584279 0.613618 0.218327
v 0.300636 1.104391 0.240735
v -0.266650 1.104391 0.240735
v -0.550293 0.613618 0.218327
v -0.266650 0.122846 0.195919
v 0.300636 0.122846 0.195919
v 0.543766 0.785001 0.694355
v 0.279586 1.239217 0.712688
v -0.245600 1.239217 0.712688
v -0.509780 0.785001 0.694355
v -0.247109 0.328106 0.675991
v 0.281095 0.328106 0.675991
v 0.416490 0.932106 1.156462
v 0.216741 1.277720 1.172242
v -0.182756 1.277720 1.172242
v -0.382504 0.932106 1.156462
v -0.182756 0.586491 1.140682
v 0.216741 0.586491 1.140682
v 0.232987 0.823327 1.474141
v 0.122271 1.005719 1.497231
v -0.088285 1.005719 1.497231
v -0.199001 0.823327 1.474141
v -0.094015 0.630995 1.449010
v 0.128001 0.630995 1.449010
v 0.017033 0.638142 1.759412
v 0.017013 0.638177 1.759413
v 0.016973 0.638177 1.759413
v 0.016953 0.638142 1.759412
v 0.016973 0.638108 1.759410
v 0.017013 0.638108 1.759410
v 0.049688 1.979495 -2.971156
v 0.038789 1.997051 -2.964219
v 0.033340 2.005829 -2.960750
v 0.000645 2.005829 -2.960750
v -0.010253 1.988273 -2.967688
v -0.015702 1.979495 -2.971156
v 0.000645 1.953162 -2.981562
v 0.022442 1.953162 -2.981562
v 0.033340 1.953162 -2.981562
v 0.017033 0.638142 1.759412
v 0.017019 0.638165 1.759413
v 0.017013 0.638177 1.759413
v 0.016973 0.638177 1.759413
v 0.016960 0.638154 1.759412
v 0.016953 0.638142 1.759412
v 0.016973 0.638108 1.759410
v 0.017000 0.638108 1.759410
v 0.017013 0.638108 1.759410
vn 0.8576 0.5071 0.0863
vn -0.0000 0.7963 0.6049
vn -0.8576 0.5071 0.0863
vn -0.6475 -0.0771 -0.7582
vn -0.0000 -0.2501 -0.9682
vn 0.6475 -0.0771 -0.7582
vn 0.8642 0.4808 0.1479
vn -0.0000 0.8234 0.5674
vn -0.8642 0.4808 0.1479
vn -0.7596 -0.2214 -0.6115
vn -0.0000 -0.4893 -0.8721
vn 0.7596 -0.2214 -0.6115
vn 0.8623 0.4301 0.2674
vn -0.0000 0.8559 0.5171
vn -0.8623 0.4301 0.2674
vn -0.8664 -0.4356 -0.2440
vn -0.8664 -0.4355 -0.2443
vn -0.8659 -0.4323 -0.2517
vn -0.0000 -0.8660 -0.5000
vn -0.0000 -0.8682 -0.4962
vn 0.8664 -0.4356 -0.2440
vn 0.8659 -0.4323 -0.2516
vn 0.8664 -0.4355 -0.2443
vn 0.8647 0.4452 0.2328
vn -0.0000 0.8800 0.4749
vn -0.8647 0.4452 0.2328
vn -0.8659 -0.4322 -0.2519
vn -0.0000 -0.8704 -0.4924
vn 0.8659 -0.4322 -0.2519
vn 0.8646 0.4983 0.0638
vn -0.0000 0.9222 0.3868
vn -0.8646 0.4983 0.0638
vn -0.7936 -0.3253 -0.5142
vn -0.0000 -0.6726 -0.7400
vn 0.7936 -0.3253 -0.5142
vn 0.8575 0.5124 -0.0464
vn -0.0000 0.9764 0.2158
vn -0.8575 0.5124 -0.0464
vn -0.7897 -0.3638 -0.4939
vn -0.0000 -0.7424 -0.6700
vn 0.7897 -0.3638 -0.4939
vn 0.8554 0.5106 -0.0868
vn 0.8555 0.5104 -0.0869
vn 0.8572 0.5073 -0.0882
vn -0.0000 0.9999 -0.0150
vn -0.8554 0.5106 -0.0868
vn -0.8572 0.5073 -0.0882
vn -0.8555 0.5104 -0.0869
vn -0.8540 -0.4672 -0.2288
vn -0.0000 -0.9543 -0.2988
vn 0.8540 -0.4672 -0.2288
vn 0.8590 0.5041 -0.0896
vn -0.0000 0.9937 -0.1121
vn -0.8590 0.5041 -0.0896
vn -0.8655 -0.4982 -0.0528
vn -0.0000 -0.9993 -0.0384
vn 0.8655 -0.4982 -0.0528
vn 0.8582 0.5021 -0.1065
vn -0.0000 0.9615 -0.2747
vn -0.8582 0.5021 -0.1065
vn -0.8350 -0.4920 0.2463
vn -0.0000 -0.9195 0.3931
vn 0.8350 -0.4920 0.2463
vn 0.8638 0.4977 0.0780
vn -0.0000 0.9965 -0.0835
vn -0.8638 0.4977 0.0780
vn -0.7971 -0.4751 0.3727
vn -0.0000 -0.8740 0.4860
vn 0.7971 -0.4751 0.3727
vn 0.7364 0.3924 0.5511
vn -0.0000 0.7669 0.6418
vn -0.7364 0.3924 0.5511
vn -0.8182 -0.4868 0.3059
vn -0.8186 -0.4868 0.3049
vn -0.8189 -0.4867 0.3042
vn -0.0000 -0.9897 0.1429
vn 0.8182 -0.4868 0.3059
vn 0.8188 -0.4868 0.3043
vn 0.8186 -0.4868 0.3049
vn 0.6517 0.3078 0.6932
vn -0.0000 0.5807 0.8141
vn -0.6517 0.3078 0.6932
vn -0.8189 -0.4867 0.3040
vn -0.0000 -0.9997 0.0229
vn 0.8189 -0.4867 0.3040
vn -0.0000 -0.3675 0.9300
vn 0.0029 0.0456 -0.9990
vn -0.0000 0.0456 -0.9990
vn 0.0021 0.0456 -0.9990
vn 0.0019 0.0456 -0.9990
vn -0.0035 0.0456 -0.9990
vn -0.0039 0.0456 -0.9990
vn -0.0055 0.0456 -0.9989
vn -0.0009 0.0456 -0.9990
vt 0.000000 0.000000
vt 0.166660 0.000000
vt 0.166660 0.025610
vt 0.000000 0.025610
vt 0.333330 0.000000
vt 0.333330 0.025610
vt 0.500000 0.000000
vt 0.500000 0.025610
vt 0.666660 0.000000
vt 0.666660 0.025610
vt 0.833330 0.000000
vt 0.833330 0.025610
vt 1.000000 0.000000
vt 1.000000 0.025610
vt 0.166660 0.050550
vt 0.000000 0.050550
vt 0.333330 0.050550
vt 0.500000 0.050550
vt 0.666660 0.050550
vt 0.833330 0.050550
vt 1.000000 0.050550
vt 0.166660 0.167160
vt 0.000000 0.167160
vt 0.333330 0.167160
vt 0.500000 0.167160
vt 0.666660 0.167160
vt 0.833330 0.167160
vt 1.000000 0.167160
vt 0.166660 0.283900
vt 0.000000 0.283900
vt 0.333330 0.283900
vt 0.500000 0.283900
vt 0.666660 0.283900
vt 0.833330 0.283900
vt 1.000000 0.283900
vt 0.166660 0.365350
vt 0.000000 0.365350
vt 0.333330 0.365350
vt 0.500000 0.365350
vt 0.666660 0.365350
vt 0.833330 0.365350
vt 1.000000 0.365350
vt 0.166660 0.445270
vt 0.000000 0.445270
vt 0.333330 0.445270
vt 0.500000 0.445270
vt 0.666660 0.445270
vt 0.833330 0.445270
vt 1.000000 0.445270
vt 0.166660 0.564200
vt 0.000000 0.564200
vt 0.333330 0.564200
vt 0.500000 0.564200
vt 0.666660 0.564200
vt 0.833330 0.564200
vt 1.000000 0.564200
vt 0.166660 0.683480
vt 0.000000 0.683480
vt 0.333330 0.683480
vt 0.500000 0.683480
vt 0.666660 0.683480
vt 0.833330 0.683480
vt 1.000000 0.683480
vt 0.166660 0.778000
vt 0.000000 0.778000
vt 0.333330 0.778000
vt 0.500000 0.778000
vt 0.666660 0.778000
vt 0.833330 0.778000
vt 1.000000 0.778000
vt 0.166660 0.871580
vt 0.000000 0.871580
vt 0.333330 0.871580
vt 0.500000 0.871580
vt 0.666660 0.871580
vt 0.833330 0.871580
vt 1.000000 0.871580
vt 0.166660 0.934410
vt 0.000000 0.934410
vt 0.333330 0.934410
vt 0.500000 0.934410
vt 0.666660 0.934410
vt 0.833330 0.934410
vt 1.000000 0.934410
vt 0.166660 1.000000
vt 0.000000 1.000000
vt 0.333330 1.000000
vt 0.500000 1.000000
vt 0.666660 1.000000
vt 0.833330 1.000000
vt 1.000000 1.000000
s 1
usemtl roll_env_07:lambert10
f 1/1/1 2/2/1 8/3/1 7/4/1
f 3/5/2 9/6/2 8/3/2 2/2/2
f 3/5/3 4/7/3 10/8/3 9/6/3
f 5/9/4 11/10/4 10/8/4 4/7/4
f 5/9/5 6/11/5 12/12/5 11/10/5
f 1/13/6 7/14/6 12/12/6 6/11/6
f 7/4/7 8/3/7 14/15/7 13/16/7
f 9/6/8 15/17/8 14/15/8 8/3/8
f 9/6/9 10/8/9 16/18/9 15/17/9
f 11/10/10 17/19/10 16/18/10 10/8/10
f 11/10/11 12/12/11 18/20/11 17/19/11
f 7/14/12 13/21/12 18/20/12 12/12/12
f 14/15/13 20/22/13 19/23/13 13/16/13
f 15/17/14 21/24/14 20/22/14 14/15/14
f 16/18/15 22/25/15 21/24/15 15/17/15
f 17/19/16 23/26/17 22/25/18 16/18/16
f 18/20/19 24/27/20 23/26/20 17/19/19
f 13/21/21 19/28/22 24/27/23 18/20/21
f 20/22/24 26/29/24 25/30/24 19/23/24
f 21/24/25 27/31/25 26/29/25 20/22/25
f 22/25/26 28/32/26 27/31/26 21/24/26
f 23/26/17 29/33/27 28/32/27 22/25/18
f 24/27/20 30/34/28 29/33/28 23/26/20
f 19/28/22 25/35/29 30/34/29 24/27/23
f 26/29/30 32/36/30 31/37/30 25/30/30
f 27/31/31 33/38/31 32/36/31 26/29/31
f 28/32/32 34/39/32 33/38/32 27/31/32
f 29/33/33 35/40/33 34/39/33 28/32/33
f 30/34/34 36/41/34 35/40/34 29/33/34
f 25/35/35 31/42/35 36/41/35 30/34/35
f 32/36/36 38/43/36 37/44/36 31/37/36
f 33/38/37 39/45/37 38/43/37 32/36/37
f 34/39/38 40/46/38 39/45/38 33/38/38
f 35/40/39 41/47/39 40/46/39 34/39/39
f 36/41/40 42/48/40 41/47/40 35/40/40
f 31/42/41 37/49/41 42/48/41 36/41/41
f 38/43/42 44/50/43 43/51/44 37/44/42
f 39/45/45 45/52/45 44/50/45 38/43/45
f 40/46/46 46/53/47 45/52/48 39/45/46
f 41/47/49 47/54/49 46/53/49 40/46/49
f 42/48/50 48/55/50 47/54/50 41/47/50
f 37/49/51 43/56/51 48/55/51 42/48/51
f 44/50/43 50/57/52 49/58/52 43/51/44
f 45/52/53 51/59/53 50/57/53 44/50/53
f 46/53/47 52/60/54 51/59/54 45/52/48
f 47/54/55 53/61/55 52/60/55 46/53/55
f 48/55/56 54/62/56 53/61/56 47/54/56
f 43/56/57 49/63/57 54/62/57 48/55/57
f 50/57/58 56/64/58 55/65/58 49/58/58
f 51/59/59 57/66/59 56/64/59 50/57/59
f 52/60/60 58/67/60 57/66/60 51/59/60
f 53/61/61 59/68/61 58/67/61 52/60/61
f 54/62/62 60/69/62 59/68/62 53/61/62
f 49/63/63 55/70/63 60/69/63 54/62/63
f 56/64/64 62/71/64 61/72/64 55/65/64
f 57/66/65 63/73/65 62/71/65 56/64/65
f 58/67/66 64/74/66 63/73/66 57/66/66
f 59/68/67 65/75/67 64/74/67 58/67/67
f 60/69/68 66/76/68 65/75/68 59/68/68
f 55/70/69 61/77/69 66/76/69 60/69/69
f 62/71/70 68/78/70 67/79/70 61/72/70
f 63/73/71 69/80/71 68/78/71 62/71/71
f 64/74/72 70/81/72 69/80/72 63/73/72
f 65/75/73 71/82/74 70/81/75 64/74/73
f 66/76/76 72/83/76 71/82/76 65/75/76
f 61/77/77 67/84/78 72/83/79 66/76/77
f 68/78/80 74/85/80 73/86/80 67/79/80
f 69/80/81 75/87/81 74/85/81 68/78/81
f 70/81/82 76/88/82 75/87/82 69/80/82
f 71/82/74 77/89/83 76/88/83 70/81/75
f 72/83/84 78/90/84 77/89/84 71/82/84
f 67/84/78 73/91/85 78/90/85 72/83/79
f 86/1/86 79/1/86 80/1/86
f 87/1/86 79/1/86 86/1/86
f 82/1/86 80/1/86 81/1/86
f 83/1/86 80/1/86 82/1/86
f 86/1/86 80/1/86 83/1/86
f 86/1/86 83/1/86 85/1/86
f 85/1/86 83/1/86 84/1/86
f 88/1/87 96/1/88 95/1/89
f 88/1/87 95/1/89 89/1/90
f 92/1/91 95/1/89 94/1/92
f 89/1/90 95/1/89 92/1/91
f 92/1/91 94/1/92 93/1/93
f 89/1/90 92/1/91 91/1/94
f 89/1/90 91/1/94 90/1/88
o Bird_LW
v 2.648673 1.425586 -0.970931
v 2.651755 1.418018 -0.970670
v 2.150059 1.380974 -0.573079
v 2.169208 1.333976 -0.571457
v 1.646380 1.373038 -0.120851
v 1.685683 1.276571 -0.117523
v 1.140333 1.336393 0.253135
v 1.197013 1.197277 0.257934
v 0.638780 1.186711 0.396882
v 0.700974 1.034060 0.402147
v 0.140358 0.985162 0.441002
v 0.202552 0.832511 0.446268
v 0.102227 0.949081 -0.154586
v 0.164421 0.796430 -0.149321
v 0.064096 0.913000 -0.750174
v 0.126290 0.760350 -0.744909
v 0.045030 0.894960 -1.047968
v 0.107224 0.742309 -1.042703
v 0.543452 1.096509 -1.092089
v 0.605646 0.943859 -1.086823
v 1.076287 1.234043 -1.087065
v 1.129636 1.103103 -1.082548
v 1.644409 1.299185 -1.046909
v 1.679152 1.213911 -1.043967
v 2.213418 1.352925 -1.027539
v 2.228330 1.316324 -1.026277
v 2.758248 1.446050 -1.055338
v 2.758972 1.444274 -1.055277
v 2.735221 1.440756 -1.047436
v 2.736368 1.437941 -1.047338
v 2.690736 1.431917 -1.018838
v 2.692804 1.426843 -1.018663
v 2.189498 1.324527 -0.777701
v 2.214295 1.318275 -0.951338
v 1.679424 1.249211 -0.513836
v 1.678018 1.224900 -0.875915
v 1.167356 1.158207 -0.296667
v 1.141261 1.120968 -0.827068
v 0.662843 0.997980 -0.193441
v 0.624712 0.961899 -0.789029
v 2.198556 1.356905 -0.952671
v 2.172074 1.367294 -0.779177
v 1.642355 1.312431 -0.878934
v 1.641932 1.341231 -0.517010
v 1.087210 1.253631 -0.831644
v 1.111954 1.294187 -0.301358
v 0.562518 1.114550 -0.794295
v 0.600649 1.150630 -0.198707
vn 0.5069 0.6498 0.5664
vn 0.3413 0.8216 0.4567
vn 0.6128 0.2752 0.7408
vn 0.6627 0.2938 0.6889
vn 0.6010 0.2708 0.7519
vn 0.4077 0.1969 0.8917
vn 0.1512 0.0955 0.9839
vn 0.1511 0.0955 0.9839
vn 0.0638 0.0603 0.9961
vn -0.9240 -0.3736 0.0818
vn -0.0638 -0.0603 -0.9961
vn -0.0237 -0.0441 -0.9987
vn -0.0236 -0.0441 -0.9988
vn 0.0439 -0.0166 -0.9989
vn 0.0535 -0.0126 -0.9985
vn -0.0031 -0.0357 -0.9994
vn -0.0421 -0.0516 -0.9978
vn 0.2897 0.1506 0.9452
vn 0.1031 0.7096 0.6970
vn 0.1531 0.7335 0.6623
vn 0.3601 0.1783 0.9157
vn 0.3229 0.8012 0.5038
vn 0.6038 0.2719 0.7493
vn 0.2076 -0.9782 0.0077
vn 0.1986 -0.9798 0.0225
vn 0.1879 -0.9812 0.0432
vn 0.1929 -0.9806 0.0356
vn 0.1903 -0.9797 0.0624
vn 0.1887 -0.9800 0.0626
vn 0.2624 -0.9636 0.0521
vn 0.2556 -0.9654 0.0525
vn 0.3492 -0.9363 0.0372
vn 0.3442 -0.9381 0.0379
vn 0.3771 -0.9256 0.0319
vn 0.2258 -0.9739 -0.0205
vn 0.2032 -0.9789 0.0211
vn 0.1875 -0.9803 0.0624
vn 0.2463 -0.9677 0.0541
vn 0.3374 -0.9406 0.0389
vn 0.2064 -0.9783 0.0167
vn 0.2316 -0.9724 -0.0291
vn 0.1875 -0.9803 0.0627
vn 0.2440 -0.9683 0.0544
vn 0.3356 -0.9412 0.0391
vn -0.1087 0.9931 0.0448
vn -0.1034 0.9942 0.0304
vn -0.1001 0.9921 -0.0752
vn -0.1005 0.9921 -0.0753
vn -0.1829 0.9810 -0.0643
vn -0.1863 0.9804 -0.0639
vn -0.3166 0.9476 -0.0424
vn -0.3191 0.9468 -0.0421
vn -0.3771 0.9256 -0.0319
vn -0.0895 0.9959 -0.0140
vn -0.1026 0.9919 -0.0753
vn -0.1996 0.9779 -0.0622
vn -0.3287 0.9435 -0.0410
vn -0.1047 0.9917 -0.0752
vn -0.2097 0.9759 -0.0610
vn -0.3359 0.9411 -0.0399
vt 0.000000 0.000000
vt 0.200000 0.000000
vt 0.200000 1.000000
vt 0.000000 1.000000
vt 0.400000 0.000000
vt 0.400000 1.000000
vt 0.600000 0.000000
vt 0.600000 1.000000
vt 0.800000 0.000000
vt 0.800000 1.000000
vt 1.000000 0.000000
vt 1.000000 1.000000
vt 0.000000 0.400000
vt 0.200000 0.400000
vt 0.400000 0.400000
vt 0.600000 0.400000
vt 0.800000 0.400000
vt 1.000000 0.400000
vt 0.000000 0.800000
vt 0.200000 0.800000
vt 0.400000 0.800000
vt 0.600000 0.800000
vt 0.800000 0.800000
vt 1.000000 0.800000
vt 0.200000 0.200000
vt 0.000000 0.200000
vt 0.400000 0.200000
vt 0.600000 0.200000
vt 0.800000 0.200000
vt 1.000000 0.200000
vt 0.000000 0.600000
vt 0.200000 0.600000
vt 0.400000 0.600000
vt 0.600000 0.600000
vt 0.800000 0.600000
vt 1.000000 0.600000
s 1
usemtl roll_env_07:fish:MaterialSG1
f 97/92/95 99/93/96 100/94/97 98/95/98
f 99/93/96 101/96/99 102/97/99 100/94/97
f 101/96/99 103/98/100 104/99/100 102/97/99
f 103/98/100 105/100/101 106/101/102 104/99/100
f 105/100/101 107/102/103 108/103/103 106/101/102
f 108/95/104 107/92/104 109/96/104 110/97/104
f 109/96/104 111/100/104 112/101/104 110/97/104
f 111/100/104 113/102/104 114/103/104 112/101/104
f 114/95/105 113/92/105 115/93/106 116/94/107
f 115/93/106 117/96/108 118/97/108 116/94/107
f 117/96/108 119/98/109 120/99/109 118/97/108
f 119/98/109 121/100/110 122/101/110 120/99/109
f 121/100/110 123/102/111 124/103/111 122/101/110
f 124/95/112 123/92/113 125/93/114 126/94/115
f 125/93/114 127/98/116 128/99/117 126/94/115
f 127/98/116 97/102/95 98/103/98 128/99/117
f 128/104/118 98/92/119 100/93/120 129/105/121
f 100/93/120 102/96/122 131/106/123 129/105/121
f 102/96/122 104/98/124 133/107/125 131/106/123
f 104/98/124 106/100/126 135/108/127 133/107/125
f 106/100/126 108/102/128 110/109/128 135/108/127
f 126/110/129 128/104/118 129/105/121 130/111/130
f 129/105/121 131/106/123 132/112/131 130/111/130
f 131/106/123 133/107/125 134/113/132 132/112/131
f 133/107/125 135/108/127 136/114/133 134/113/132
f 135/108/127 110/109/128 112/115/128 136/114/133
f 130/111/130 122/94/134 124/95/135 126/110/129
f 132/112/131 120/97/136 122/94/134 130/111/130
f 134/113/132 118/99/137 120/97/136 132/112/131
f 136/114/133 116/101/138 118/99/137 134/113/132
f 112/115/128 114/103/128 116/101/138 136/114/133
f 121/93/139 137/116/140 125/117/114 123/92/113
f 119/96/141 139/118/142 137/116/140 121/93/139
f 117/98/143 141/119/144 139/118/142 119/96/141
f 115/100/145 143/120/146 141/119/144 117/98/143
f 113/102/147 111/121/147 143/120/146 115/100/145
f 127/122/116 125/117/114 137/116/140 138/123/148
f 137/116/140 139/118/142 140/124/149 138/123/148
f 139/118/142 141/119/144 142/125/150 140/124/149
f 141/119/144 143/120/146 144/126/151 142/125/150
f 143/120/146 111/121/147 109/127/147 144/126/151
f 97/95/95 127/122/116 138/123/148 99/94/96
f 138/123/148 140/124/149 101/97/152 99/94/96
f 140/124/149 142/125/150 103/99/153 101/97/152
f 142/125/150 144/126/151 105/101/154 103/99/153
f 144/126/151 109/127/147 107/103/147 105/101/154
o Bird_RW
v -2.668102 1.374726 -1.246514
v -2.665467 1.382455 -1.246906
v -2.235040 1.295989 -0.800311
v -2.218672 1.343992 -0.802746
v -1.811487 1.235002 -0.300425
v -1.777891 1.333531 -0.305424
v -1.371719 1.156582 0.122619
v -1.323268 1.298671 0.115410
v -0.887237 1.017237 0.319068
v -0.834073 1.173151 0.311157
v -0.383718 0.850535 0.417418
v -0.330554 1.006449 0.409507
v -0.289525 0.788625 -0.169758
v -0.236361 0.944538 -0.177669
v -0.195332 0.726714 -0.756934
v -0.142167 0.882628 -0.764845
v -0.148235 0.695759 -1.050523
v -0.095071 0.851673 -1.058433
v -0.651753 0.862461 -1.148872
v -0.598589 1.018375 -1.156783
v -1.174091 1.012472 -1.200331
v -1.128488 1.146212 -1.207117
v -1.712684 1.141580 -1.218716
v -1.682985 1.228677 -1.223135
v -2.247366 1.264785 -1.257579
v -2.234619 1.302168 -1.259475
v -2.766307 1.396579 -1.341815
v -2.765688 1.398392 -1.341907
v -2.744585 1.390913 -1.331538
v -2.743604 1.393788 -1.331684
v -2.704102 1.381439 -1.298469
v -2.702334 1.386622 -1.298732
v -2.219357 1.323947 -1.009204
v -2.227679 1.308342 -1.183792
v -1.733828 1.288305 -0.697666
v -1.697882 1.247443 -1.056442
v -1.240915 1.235571 -0.431599
v -1.164404 1.175244 -0.954947
v -0.739879 1.111240 -0.276019
v -0.645686 1.049330 -0.863195
v -2.241133 1.268887 -1.181790
v -2.234251 1.280266 -1.006988
v -1.728367 1.158041 -1.051906
v -1.765877 1.194317 -0.692897
v -1.210607 1.039745 -0.948072
v -1.288274 1.096684 -0.424553
v -0.698850 0.893416 -0.855284
v -0.793043 0.955327 -0.268108
vn -0.7389 0.2830 0.6115
vn -0.6929 0.2702 0.6685
vn -0.6821 0.2671 0.6808
vn -0.6820 0.2671 0.6808
vn -0.4981 0.2125 0.8407
vn -0.4980 0.2125 0.8407
vn -0.2455 0.1324 0.9603
vn -0.2454 0.1324 0.9603
vn -0.1575 0.1035 0.9821
vn 0.9334 -0.3090 0.1823
vn 0.1575 -0.1035 -0.9821
vn 0.1166 -0.0900 -0.9891
vn 0.1170 -0.0901 -0.9890
vn 0.0482 -0.0670 -0.9966
vn 0.0383 -0.0637 -0.9972
vn 0.0960 -0.0831 -0.9919
vn 0.1356 -0.0963 -0.9861
vn -0.3829 0.1766 0.9067
vn -0.4519 0.1982 0.8698
vn -0.6846 0.2678 0.6779
vn 0.1582 0.9865 -0.0419
vn 0.1509 0.9869 -0.0567
vn 0.1424 0.9868 -0.0771
vn 0.1466 0.9868 -0.0695
vn 0.1465 0.9846 -0.0949
vn 0.1450 0.9848 -0.0952
vn 0.2142 0.9736 -0.0784
vn 0.2077 0.9749 -0.0798
vn 0.2957 0.9536 -0.0560
vn 0.2913 0.9549 -0.0570
vn 0.3224 0.9454 -0.0480
vn 0.1731 0.9848 -0.0136
vn 0.1551 0.9864 -0.0549
vn 0.1438 0.9850 -0.0952
vn 0.1990 0.9766 -0.0819
vn 0.2847 0.9568 -0.0586
vn 0.1577 0.9862 -0.0505
vn 0.1778 0.9840 -0.0049
vn 0.1436 0.9850 -0.0953
vn 0.1969 0.9770 -0.0823
vn 0.2832 0.9573 -0.0589
vn -0.2305 -0.9726 0.0291
vn -0.2292 -0.9728 0.0348
vn -0.2298 -0.9732 -0.0034
vn -0.2321 -0.9726 -0.0145
vn -0.2322 -0.9700 0.0726
vn -0.2592 -0.9636 0.0656
vn -0.2603 -0.9633 0.0653
vn -0.3027 -0.9516 0.0535
vn -0.3035 -0.9513 0.0533
vn -0.3224 -0.9454 0.0480
vn -0.2246 -0.9740 0.0298
vn -0.2260 -0.9728 0.0516
vn -0.2331 -0.9698 0.0722
vn -0.2645 -0.9623 0.0641
vn -0.3066 -0.9504 0.0525
vn -0.2233 -0.9737 0.0443
vn -0.2251 -0.9725 0.0590
vn -0.2335 -0.9697 0.0723
vn -0.2679 -0.9614 0.0636
vn -0.3090 -0.9496 0.0519
vt 0.000000 0.000000
vt 0.200000 0.000000
vt 0.200000 1.000000
vt 0.000000 1.000000
vt 0.400000 0.000000
vt 0.400000 1.000000
vt 0.600000 0.000000
vt 0.600000 1.000000
vt 0.800000 0.000000
vt 0.800000 1.000000
vt 1.000000 0.000000
vt 1.000000 1.000000
vt 0.000000 0.400000
vt 0.200000 0.400000
vt 0.400000 0.400000
vt 0.600000 0.400000
vt 0.800000 0.400000
vt 1.000000 0.400000
vt 0.000000 0.800000
vt 0.200000 0.800000
vt 0.400000 0.800000
vt 0.600000 0.800000
vt 0.800000 0.800000
vt 1.000000 0.800000
vt 0.200000 0.200000
vt 0.000000 0.200000
vt 0.400000 0.200000
vt 0.600000 0.200000
vt 0.800000 0.200000
vt 1.000000 0.200000
vt 0.000000 0.600000
vt 0.200000 0.600000
vt 0.400000 0.600000
vt 0.600000 0.600000
vt 0.800000 0.600000
vt 1.000000 0.600000
s 1
usemtl roll_env_07:fish:MaterialSG1
f 145/128/155 147/129/156 148/130/156 146/131/155
f 147/129/156 149/132/157 150/133/158 148/130/156
f 149/132/157 151/134/159 152/135/160 150/133/158
f 151/134/159 153/136/161 154/137/162 152/135/160
f 153/136/161 155/138/163 156/139/163 154/137/162
f 156/131/164 155/128/164 157/132/164 158/133/164
f 158/133/164 157/132/164 159/136/164 160/137/164
f 159/136/164 161/138/164 162/139/164 160/137/164
f 162/131/165 161/128/165 163/129/166 164/130/167
f 163/129/166 165/132/168 166/133/168 164/130/167
f 165/132/168 167/134/169 168/135/169 166/133/168
f 167/134/169 169/136/170 170/137/170 168/135/169
f 169/136/170 171/138/171 172/139/171 170/137/170
f 172/131/172 171/128/172 173/129/173 174/130/173
f 174/130/173 173/129/173 175/134/174 176/135/174
f 176/135/174 175/134/174 145/138/155 146/139/155
f 176/140/175 146/128/176 148/129/177 177/141/178
f 148/129/177 150/132/179 179/142/180 177/141/178
f 150/132/179 152/134/181 181/143/182 179/142/180
f 152/134/181 154/136/183 183/144/184 181/143/182
f 154/136/183 156/138/185 158/145/185 183/144/184
f 174/146/186 176/140/175 177/141/178 178/147/187
f 177/141/178 179/142/180 180/148/188 178/147/187
f 179/142/180 181/143/182 182/149/189 180/148/188
f 181/143/182 183/144/184 184/150/190 182/149/189
f 183/144/184 158/145/185 160/151/185 184/150/190
f 178/147/187 170/130/191 172/131/192 174/146/186
f 180/148/188 168/133/193 170/130/191 178/147/187
f 182/149/189 166/135/194 168/133/193 180/148/188
f 184/150/190 164/137/195 166/135/194 182/149/189
f 160/151/185 162/139/185 164/137/195 184/150/190
f 169/129/196 185/152/197 173/153/198 171/128/199
f 167/132/200 187/154/200 185/152/197 169/129/196
f 165/134/201 189/155/202 187/154/200 167/132/200
f 163/136/203 191/156/204 189/155/202 165/134/201
f 161/138/205 159/157/205 191/156/204 163/136/203
f 175/158/206 173/153/198 185/152/197 186/159/207
f 185/152/197 187/154/200 188/160/208 186/159/207
f 187/154/200 189/155/202 190/161/209 188/160/208
f 189/155/202 191/156/204 192/162/210 190/161/209
f 191/156/204 159/157/205 157/163/205 192/162/210
f 145/131/211 175/158/206 186/159/207 147/130/212
f 186/159/207 188/160/208 149/133/213 147/130/212
f 188/160/208 190/161/209 151/135/214 149/133/213
f 190/161/209 192/162/210 153/137/215 151/135/214
f 192/162/210 157/163/205 155/139/205 153/137/215
